<svg width="17" height="20" viewBox="0 0 17 20" fill="none" xmlns="http://www.w3.org/2000/svg">
<path d="M2.49963 11.2849C2.49963 9.63485 3.16963 8.13485 4.25963 7.04485L2.83963 5.62485C1.39963 7.07485 0.499634 9.07485 0.499634 11.2849C0.499634 15.3649 3.54963 18.7249 7.49963 19.2149V17.1949C4.66963 16.7149 2.49963 14.2549 2.49963 11.2849ZM16.4996 11.2849C16.4996 6.86485 12.9196 3.28485 8.49963 3.28485C8.43963 3.28485 8.37963 3.29485 8.31963 3.29485L9.40963 2.20485L7.99963 0.784851L4.49963 4.28485L7.99963 7.78485L9.40963 6.37485L8.32963 5.29485C8.38963 5.29485 8.44963 5.28485 8.49963 5.28485C11.8096 5.28485 14.4996 7.97485 14.4996 11.2849C14.4996 14.2549 12.3296 16.7149 9.49963 17.1949V19.2149C13.4496 18.7249 16.4996 15.3649 16.4996 11.2849Z" fill="#FFECE2"/>
</svg>
